<svg xmlns="http://www.w3.org/2000/svg" width="256" height="256" fill="none" viewBox="0 0 256 256">
<!-- SVG created with Arrow, by QuiverAI (https://quiver.ai) -->
  <path d="m127.6 7.61c-46.02 0-84.72 38.47-84.72 85.93 0 37.4 26.24 73.01 64.27 81.72 0.66-8.28 3.72-19.88 3.91-19.14-29.05-7.41-48.04-32.93-48.04-63.01 0-27.83 17.09-52.44 41.5-61.98 13.2-12.02 28.19-15.36 41.49-15.36 17 0 31.28 6.22 42.96 16.26-15.91-14.89-35.88-24.42-61.37-24.42z" fill="url(#paint0_linear_1_12907)"/>
  <path d="m139.8 16.07c-33.74 2.65-58.99 32.72-58.99 73.48-1.66 28.52 18.22 50.23 47.13 50.23h5.02c14.7-15.47 21.04-27.29 21.33-46.24 0 14.4-12.17 26.32-26.35 26.32-15.71 0-26.82-13.25-26.88-26.03 0-17.17 9.56-28.79 26.58-28.79 15.52 0 26.63 13.82 26.63 27.82 0 20.07-6.83 34.86-22.34 49.56-12.27 13.05-13.93 29.3-13.93 39.35v10.04h19.68l0.09-14.29c37.65-3.91 74.5-38.41 74.5-84.76 0-45.33-34.63-79.74-72.47-76.69zm8.12 138.1c14.29-16.46 26.75-34.73 26.75-60.38 0-23.02-17.76-48.57-47.13-48.57-3.62 0-6.69 0.1-8.87 0.78-1.16 0.39-2.23 0.78-1.06 0 7.66-7.26 17.8-9.7 26.15-9.51 29.06 0.58 48.45 25.3 48.45 55.94 0 26.52-18.13 52.37-44.29 61.74z" fill="url(#paint1_linear_1_12907)"/>
  <path d="m127.6 204.7c-12.66 0-20.71 11.3-20.71 22.26 0 11.5 9.21 21.47 20.71 21.47 12.07 0 21.29-10.26 21.29-21.27 0-11.7-8.92-22.46-21.29-22.46z" fill="url(#paint2_linear_1_12907)"/>
  <defs>
    <linearGradient id="paint0_linear_1_12907" x1="62.45" x2="97.76" y1="16" y2="169.3" gradientUnits="userSpaceOnUse">
      <stop stop-color="#2699D6" offset="0"/>
      <stop stop-color="#37B0E2" offset=".434"/>
      <stop stop-color="#3CB6E5" offset="1"/>
    </linearGradient>
    <linearGradient id="paint1_linear_1_12907" x1="101" x2="178.2" y1="29.86" y2="158.3" gradientUnits="userSpaceOnUse">
      <stop stop-color="#1678B6" offset="0"/>
      <stop stop-color="#197CBC" offset=".492"/>
      <stop stop-color="#1971B4" offset="1"/>
    </linearGradient>
    <linearGradient id="paint2_linear_1_12907" x1="112.1" x2="143.9" y1="209.3" y2="244.5" gradientUnits="userSpaceOnUse">
      <stop stop-color="#1678B6" offset="0"/>
      <stop stop-color="#1971B4" offset="1"/>
    </linearGradient>
  </defs>
</svg>